<?xml version="1.0" standalone="no"?>
<!DOCTYPE svg PUBLIC "-//W3C//DTD SVG 20010904//EN"
 "http://www.w3.org/TR/2001/REC-SVG-20010904/DTD/svg10.dtd">
<svg version="1.0" xmlns="http://www.w3.org/2000/svg"
 width="500.000000pt" height="500.000000pt" viewBox="0 0 500.000000 500.000000"
 preserveAspectRatio="xMidYMid meet">

<g transform="translate(0.000000,500.000000) scale(0.100000,-0.100000)"
fill="#000000" stroke="none">
<path d="M0 2500 l0 -2500 2500 0 2500 0 0 2500 0 2500 -2500 0 -2500 0 0
-2500z m1742 1042 c-12 -389 66 -737 230 -1023 69 -121 145 -218 253 -324 120
-118 221 -192 365 -269 58 -31 101 -56 96 -56 -21 0 -218 111 -301 171 -110
77 -249 214 -337 333 -83 111 -185 316 -231 461 -67 211 -91 385 -90 663 l0
203 -36 -33 c-135 -123 -147 -132 -63 -50 53 50 101 92 107 92 10 0 12 -39 7
-168z m-252 -55 c0 -2 -10 -12 -22 -23 l-23 -19 19 23 c18 21 26 27 26 19z
m-53 -204 c-2 -21 -4 -6 -4 32 0 39 2 55 4 38 2 -18 2 -50 0 -70z m10 -120
c-3 -10 -5 -4 -5 12 0 17 2 24 5 18 2 -7 2 -21 0 -30z m10 -75 c-3 -7 -5 -2
-5 12 0 14 2 19 5 13 2 -7 2 -19 0 -25z m10 -60 c-3 -7 -5 -2 -5 12 0 14 2 19
5 13 2 -7 2 -19 0 -25z m10 -50 c-3 -8 -6 -5 -6 6 -1 11 2 17 5 13 3 -3 4 -12
1 -19z m107 -319 c110 -258 297 -482 529 -637 26 -18 51 -32 54 -32 4 0 14 -6
22 -14 22 -19 140 -78 231 -113 191 -76 396 -117 628 -127 l117 -5 -70 13
c-38 8 -86 19 -105 25 l-35 11 35 -4 c19 -3 68 -10 109 -18 59 -10 75 -10 79
0 2 6 7 12 12 12 12 0 -13 -87 -39 -137 -30 -60 -35 -53 -6 9 27 58 23 68 -32
68 -61 0 -359 41 -448 62 -243 56 -473 165 -665 316 -93 73 -234 231 -305 340
-46 72 -136 252 -150 302 -13 43 1 18 39 -71z m1525 -527 c85 -65 153 -107
209 -127 20 -7 29 -14 19 -14 -27 -1 -153 67 -226 122 -35 26 -65 46 -67 44
-2 -2 7 -18 19 -35 47 -63 117 -216 122 -267 l5 -50 -13 55 c-14 62 -72 181
-123 253 -31 44 -43 77 -27 77 3 0 40 -26 82 -58z m731 17 c0 -11 -22 -46 -48
-77 -63 -74 -112 -153 -124 -200 -5 -20 -14 -55 -19 -77 -24 -94 14 -221 111
-366 56 -84 44 -118 -22 -60 -18 15 -68 51 -111 79 -175 114 -250 119 -435 26
-63 -33 -131 -71 -150 -86 -34 -27 -82 -38 -82 -18 0 5 28 45 63 87 34 43 70
89 80 103 11 16 14 18 8 5 -8 -17 -57 -88 -115 -165 -8 -11 -5 -11 14 2 72 49
222 130 265 143 64 19 148 19 213 0 29 -9 99 -47 156 -85 57 -39 107 -70 110
-70 2 0 -12 28 -33 63 -21 34 -54 94 -72 132 -31 64 -34 78 -34 161 0 85 2 95
38 165 21 42 63 109 94 149 30 41 57 81 58 90 2 8 4 16 4 18 1 1 8 2 16 2 9 0
15 -9 15 -21z m-40 -3 c0 -6 -82 -58 -86 -53 -2 2 13 15 34 29 35 25 52 32 52
24z m-106 -67 c-8 -14 -163 -89 -183 -89 -9 0 9 11 39 23 30 13 75 34 100 49
54 31 53 31 44 17z m-301 -96 c-7 -2 -19 -2 -25 0 -7 3 -2 5 12 5 14 0 19 -2
13 -5z m94 1 c-3 -3 -12 -4 -19 -1 -8 3 -5 6 6 6 11 1 17 -2 13 -5z m-732
-135 c22 -10 29 -16 15 -13 -28 7 -80 33 -65 33 6 0 28 -9 50 -20z m80 -29
c13 -6 15 -9 5 -9 -8 0 -22 4 -30 9 -18 12 -2 12 25 0z m82 -26 c-3 -3 -12 -4
-19 -1 -8 3 -5 6 6 6 11 1 17 -2 13 -5z"/>
</g>
</svg>
